<?xml version="1.0" encoding="UTF-8" standalone="no"?>
<!-- Created with Inkscape (http://www.inkscape.org/) -->

<svg
   xmlns:dc="http://purl.org/dc/elements/1.1/"
   xmlns:cc="http://creativecommons.org/ns#"
   xmlns:rdf="http://www.w3.org/1999/02/22-rdf-syntax-ns#"
   xmlns:svg="http://www.w3.org/2000/svg"
   xmlns="http://www.w3.org/2000/svg"
   xmlns:xlink="http://www.w3.org/1999/xlink"
   xmlns:sodipodi="http://sodipodi.sourceforge.net/DTD/sodipodi-0.dtd"
   xmlns:inkscape="http://www.inkscape.org/namespaces/inkscape"
   width="210mm"
   height="297mm"
   viewBox="0 0 744.09448819 1052.3622047"
   id="svg2"
   version="1.1"
   inkscape:version="0.91 r13725"
   sodipodi:docname="elvontgyar.svg">
  <defs
     id="defs4">
    <linearGradient
       inkscape:collect="always"
       id="linearGradient5754">
      <stop
         style="stop-color:#000000;stop-opacity:1;"
         offset="0"
         id="stop5756" />
      <stop
         style="stop-color:#000000;stop-opacity:0;"
         offset="1"
         id="stop5758" />
    </linearGradient>
    <marker
       inkscape:stockid="EmptyTriangleInL"
       orient="auto"
       refY="0.0"
       refX="0.0"
       id="EmptyTriangleInL"
       style="overflow:visible"
       inkscape:isstock="true">
      <path
         id="path4670"
         d="M 5.77,0.0 L -2.88,5.0 L -2.88,-5.0 L 5.77,0.0 z "
         style="fill-rule:evenodd;fill:#ffffff;stroke:#000000;stroke-width:1pt;stroke-opacity:1"
         transform="scale(-0.8) translate(-6,0)" />
    </marker>
    <marker
       inkscape:stockid="EmptyTriangleOutL"
       orient="auto"
       refY="0.0"
       refX="0.0"
       id="EmptyTriangleOutL"
       style="overflow:visible"
       inkscape:isstock="true">
      <path
         id="path4679"
         d="M 5.77,0.0 L -2.88,5.0 L -2.88,-5.0 L 5.77,0.0 z "
         style="fill-rule:evenodd;fill:#ffffff;stroke:#000000;stroke-width:1pt;stroke-opacity:1"
         transform="scale(0.8) translate(-6,0)" />
    </marker>
    <linearGradient
       id="linearGradient11076">
      <stop
         id="stop11078"
         offset="0"
         style="stop-color:#dc611d;stop-opacity:0.94117647;" />
      <stop
         id="stop11080"
         offset="1"
         style="stop-color:#fdf3d7;stop-opacity:1;" />
    </linearGradient>
    <linearGradient
       id="linearGradient9998">
      <stop
         id="stop10000"
         offset="0"
         style="stop-color:#c05b17;stop-opacity:1;" />
      <stop
         style="stop-color:#f19a64;stop-opacity:1;"
         offset="1"
         id="stop10002" />
    </linearGradient>
    <linearGradient
       id="linearGradient9005">
      <stop
         style="stop-color:#636095;stop-opacity:1;"
         offset="0"
         id="stop9996" />
      <stop
         id="stop9009"
         offset="1"
         style="stop-color:#07070c;stop-opacity:1;" />
    </linearGradient>
    <linearGradient
       id="linearGradient8020">
      <stop
         id="stop8022"
         offset="0"
         style="stop-color:#cecece;stop-opacity:1;" />
      <stop
         id="stop8024"
         offset="1"
         style="stop-color:#ffffff;stop-opacity:1;" />
    </linearGradient>
    <linearGradient
       id="linearGradient8004">
      <stop
         id="stop8006"
         offset="0"
         style="stop-color:#dc621f;stop-opacity:1;" />
      <stop
         id="stop8008"
         offset="1"
         style="stop-color:#fffae0;stop-opacity:1;" />
    </linearGradient>
    <linearGradient
       id="linearGradient7998">
      <stop
         style="stop-color:#e38165;stop-opacity:1;"
         offset="0"
         id="stop8000" />
      <stop
         id="stop8010"
         offset="1"
         style="stop-color:#fec997;stop-opacity:0.94117647;" />
    </linearGradient>
    <linearGradient
       gradientUnits="userSpaceOnUse"
       y2="252.32663"
       x2="165.88071"
       y1="252.09724"
       x1="181.41467"
       id="linearGradient7996"
       xlink:href="#linearGradient9998"
       inkscape:collect="always" />
    <linearGradient
       gradientUnits="userSpaceOnUse"
       y2="389.50504"
       x2="600"
       y1="389.50504"
       x1="200"
       id="linearGradient8026"
       xlink:href="#linearGradient8020"
       inkscape:collect="always" />
    <linearGradient
       gradientUnits="userSpaceOnUse"
       y2="265.51654"
       x2="166.96313"
       y1="234.89305"
       x1="180.10283"
       id="linearGradient10022"
       xlink:href="#linearGradient9005"
       inkscape:collect="always" />
    <linearGradient
       gradientTransform="matrix(0.9274193,0,0,0.9325015,458.20461,363.98683)"
       y2="265.51654"
       x2="166.96313"
       y1="234.89305"
       x1="180.10283"
       gradientUnits="userSpaceOnUse"
       id="linearGradient10026"
       xlink:href="#linearGradient9005"
       inkscape:collect="always" />
    <linearGradient
       gradientTransform="matrix(0.9274193,0,0,0.9325015,458.20461,363.98683)"
       y2="252.32663"
       x2="165.88071"
       y1="252.09724"
       x1="181.41467"
       gradientUnits="userSpaceOnUse"
       id="linearGradient10028"
       xlink:href="#linearGradient9998"
       inkscape:collect="always" />
    <linearGradient
       y2="265.51654"
       x2="166.96313"
       y1="234.89305"
       x1="180.10283"
       gradientTransform="matrix(0.8899527,0,0,0.8976583,493.01175,372.60805)"
       gradientUnits="userSpaceOnUse"
       id="linearGradient10032"
       xlink:href="#linearGradient9005"
       inkscape:collect="always" />
    <linearGradient
       y2="252.32663"
       x2="165.88071"
       y1="252.09724"
       x1="181.41467"
       gradientTransform="matrix(0.8899527,0,0,0.8976583,493.01175,372.60805)"
       gradientUnits="userSpaceOnUse"
       id="linearGradient10034"
       xlink:href="#linearGradient9998"
       inkscape:collect="always" />
    <linearGradient
       y2="265.51654"
       x2="166.96313"
       y1="234.89305"
       x1="180.10283"
       gradientTransform="matrix(0.8657592,0,0,0.8751588,525.376,379.65169)"
       gradientUnits="userSpaceOnUse"
       id="linearGradient10038"
       xlink:href="#linearGradient9005"
       inkscape:collect="always" />
    <linearGradient
       y2="252.32663"
       x2="165.88071"
       y1="252.09724"
       x1="181.41467"
       gradientTransform="matrix(0.8657592,0,0,0.8751588,525.376,379.65169)"
       gradientUnits="userSpaceOnUse"
       id="linearGradient10040"
       xlink:href="#linearGradient9998"
       inkscape:collect="always" />
    <linearGradient
       y2="265.51654"
       x2="166.96313"
       y1="234.89305"
       x1="180.10283"
       gradientTransform="matrix(0.8335011,0,0,0.8451595,555.52958,387.20813)"
       gradientUnits="userSpaceOnUse"
       id="linearGradient10044"
       xlink:href="#linearGradient9005"
       inkscape:collect="always" />
    <linearGradient
       y2="252.32663"
       x2="165.88071"
       y1="252.09724"
       x1="181.41467"
       gradientTransform="matrix(0.8335011,0,0,0.8451595,555.52958,387.20813)"
       gradientUnits="userSpaceOnUse"
       id="linearGradient10046"
       xlink:href="#linearGradient9998"
       inkscape:collect="always" />
    <linearGradient
       gradientTransform="translate(149.76375,225.00504)"
       y2="265.51654"
       x2="166.96313"
       y1="234.89305"
       x1="180.10283"
       gradientUnits="userSpaceOnUse"
       id="linearGradient10054"
       xlink:href="#linearGradient9005"
       inkscape:collect="always" />
    <linearGradient
       gradientTransform="translate(149.76375,225.00504)"
       y2="252.32663"
       x2="165.88071"
       y1="252.09724"
       x1="181.41467"
       gradientUnits="userSpaceOnUse"
       id="linearGradient10056"
       xlink:href="#linearGradient9998"
       inkscape:collect="always" />
    <linearGradient
       y2="265.51654"
       x2="166.96313"
       y1="234.89305"
       x1="180.10283"
       gradientTransform="translate(124.18685,225.34912)"
       gradientUnits="userSpaceOnUse"
       id="linearGradient10060"
       xlink:href="#linearGradient9005"
       inkscape:collect="always" />
    <linearGradient
       y2="252.32663"
       x2="165.88071"
       y1="252.09724"
       x1="181.41467"
       gradientTransform="translate(124.18685,225.34912)"
       gradientUnits="userSpaceOnUse"
       id="linearGradient10062"
       xlink:href="#linearGradient9998"
       inkscape:collect="always" />
    <linearGradient
       gradientTransform="translate(418.00045,345.03505)"
       gradientUnits="userSpaceOnUse"
       y2="165.92863"
       x2="234.22913"
       y1="166.25305"
       x1="248.29562"
       id="linearGradient11046"
       xlink:href="#linearGradient8004"
       inkscape:collect="always" />
    <linearGradient
       gradientTransform="translate(418.00045,345.03505)"
       gradientUnits="userSpaceOnUse"
       y2="150.96799"
       x2="182.29138"
       y1="150.96797"
       x1="198.07639"
       id="linearGradient11048"
       xlink:href="#linearGradient8004"
       inkscape:collect="always" />
    <linearGradient
       gradientTransform="translate(418.00045,345.03505)"
       gradientUnits="userSpaceOnUse"
       y2="141.15884"
       x2="121.18811"
       y1="140.99664"
       x1="139.2645"
       id="linearGradient11050"
       xlink:href="#linearGradient8004"
       inkscape:collect="always" />
    <linearGradient
       gradientTransform="translate(418.00045,345.03505)"
       gradientUnits="userSpaceOnUse"
       y2="33.227329"
       x2="216.70331"
       y1="107.64502"
       x1="131.53181"
       id="linearGradient11058"
       xlink:href="#linearGradient8020"
       inkscape:collect="always" />
    <linearGradient
       gradientTransform="translate(418.00045,345.03505)"
       gradientUnits="userSpaceOnUse"
       y2="71.261475"
       x2="289.73041"
       y1="116.26142"
       x1="195.03242"
       id="linearGradient11066"
       xlink:href="#linearGradient8020"
       inkscape:collect="always" />
    <linearGradient
       gradientTransform="translate(418.00045,345.03505)"
       gradientUnits="userSpaceOnUse"
       y2="201.42497"
       x2="286.03665"
       y1="201.42497"
       x1="135.84737"
       id="linearGradient11101"
       xlink:href="#linearGradient8004"
       inkscape:collect="always" />
    <linearGradient
       gradientTransform="translate(418.00045,345.03505)"
       gradientUnits="userSpaceOnUse"
       y2="182.60202"
       x2="114.37852"
       y1="220.69527"
       x1="88.207565"
       id="linearGradient11109"
       xlink:href="#linearGradient7998"
       inkscape:collect="always" />
    <linearGradient
       gradientTransform="translate(418.00045,345.03505)"
       gradientUnits="userSpaceOnUse"
       y2="223.83699"
       x2="120.89256"
       y1="282.59973"
       x1="83.622215"
       id="linearGradient11117"
       xlink:href="#linearGradient7998"
       inkscape:collect="always" />
    <linearGradient
       gradientTransform="translate(418.00045,345.03505)"
       gradientUnits="userSpaceOnUse"
       y2="248.19733"
       x2="312.82672"
       y1="248.19733"
       x1="146.02051"
       id="linearGradient11125"
       xlink:href="#linearGradient8004"
       inkscape:collect="always" />
    <linearGradient
       gradientTransform="translate(418.00045,345.03505)"
       gradientUnits="userSpaceOnUse"
       y2="123.42538"
       x2="357.9328"
       y1="123.42538"
       x1="231.87556"
       id="linearGradient12102"
       xlink:href="#linearGradient8020"
       inkscape:collect="always" />
    <linearGradient
       gradientTransform="translate(200,215.00504)"
       y2="248.19733"
       x2="312.82672"
       y1="248.19733"
       x1="146.02051"
       gradientUnits="userSpaceOnUse"
       id="linearGradient14048"
       xlink:href="#linearGradient8004"
       inkscape:collect="always" />
    <linearGradient
       y2="265.51654"
       x2="166.96313"
       y1="234.89305"
       x1="180.10283"
       gradientTransform="matrix(0.9274193,0,0,0.9980425,430.63015,346.17485)"
       gradientUnits="userSpaceOnUse"
       id="linearGradient2244"
       xlink:href="#linearGradient9005"
       inkscape:collect="always" />
    <linearGradient
       y2="252.32663"
       x2="165.88071"
       y1="252.09724"
       x1="181.41467"
       gradientTransform="matrix(0.9274193,0,0,0.9980425,430.63015,346.17485)"
       gradientUnits="userSpaceOnUse"
       id="linearGradient2246"
       xlink:href="#linearGradient9998"
       inkscape:collect="always" />
    <linearGradient
       y2="265.51654"
       x2="166.96313"
       y1="234.89305"
       x1="180.10283"
       gradientTransform="matrix(0.9274193,0,0,0.9980425,378.23867,345.12053)"
       gradientUnits="userSpaceOnUse"
       id="linearGradient2250"
       xlink:href="#linearGradient9005"
       inkscape:collect="always" />
    <linearGradient
       y2="252.32663"
       x2="165.88071"
       y1="252.09724"
       x1="181.41467"
       gradientTransform="matrix(0.9274193,0,0,0.9980425,378.23867,345.12053)"
       gradientUnits="userSpaceOnUse"
       id="linearGradient2252"
       xlink:href="#linearGradient9998"
       inkscape:collect="always" />
    <linearGradient
       y2="265.51654"
       x2="166.96313"
       y1="234.89305"
       x1="180.10283"
       gradientTransform="matrix(0.9274193,0,0,0.9980425,352.44844,345.20163)"
       gradientUnits="userSpaceOnUse"
       id="linearGradient2257"
       xlink:href="#linearGradient9005"
       inkscape:collect="always" />
    <linearGradient
       y2="252.32663"
       x2="165.88071"
       y1="252.09724"
       x1="181.41467"
       gradientTransform="matrix(0.9274193,0,0,0.9980425,352.44844,345.20163)"
       gradientUnits="userSpaceOnUse"
       id="linearGradient2259"
       xlink:href="#linearGradient9998"
       inkscape:collect="always" />
    <linearGradient
       inkscape:collect="always"
       xlink:href="#linearGradient5754"
       id="linearGradient5760"
       x1="369.26215"
       y1="768.40472"
       x2="394.97653"
       y2="738.59473"
       gradientUnits="userSpaceOnUse"
       gradientTransform="translate(5.2904449,-237.26591)" />
  </defs>
  <sodipodi:namedview
     id="base"
     pagecolor="#ffffff"
     bordercolor="#666666"
     borderopacity="1.0"
     inkscape:pageopacity="0.0"
     inkscape:pageshadow="2"
     inkscape:zoom="1.1570521"
     inkscape:cx="182.52757"
     inkscape:cy="516.92259"
     inkscape:document-units="px"
     inkscape:current-layer="layer1"
     showgrid="false"
     inkscape:snap-bbox="true"
     inkscape:snap-bbox-midpoints="true"
     inkscape:snap-page="false"
     showguides="true"
     inkscape:guide-bbox="true"
     inkscape:snap-bbox-edge-midpoints="false"
     inkscape:object-paths="true"
     inkscape:window-width="1920"
     inkscape:window-height="1027"
     inkscape:window-x="1680"
     inkscape:window-y="0"
     inkscape:window-maximized="1"
     inkscape:snap-global="true"
     inkscape:object-nodes="true"
     inkscape:snap-smooth-nodes="true">
    <sodipodi:guide
       position="349.58809,790.16793"
       orientation="1,0"
       id="guide3711" />
    <sodipodi:guide
       position="169.91649,649.60852"
       orientation="0,1"
       id="guide4366" />
  </sodipodi:namedview>
  <metadata
     id="metadata7">
    <rdf:RDF>
      <cc:Work
         rdf:about="">
        <dc:format>image/svg+xml</dc:format>
        <dc:type
           rdf:resource="http://purl.org/dc/dcmitype/StillImage" />
        <dc:title />
      </cc:Work>
    </rdf:RDF>
  </metadata>
  <g
     inkscape:label="Layer 1"
     inkscape:groupmode="layer"
     id="layer1">
    <g
       transform="matrix(0.95697556,0,0,0.81814649,-55.457291,209.39296)"
       id="g1935">
      <polygon
         points="341.6,266.94 274.57,227.92 274.57,227.92 274.57,266.94 207.9,227.92 207.9,266.94 141.23,227.92 141.23,318.56 362.99,318.56 360.25,154.12 343.48,154.12 "
         id="polygon1945" />
      <path
         d="m 205.38,128.34 c 7.78,9.5 19.37,15.26 31.68,15.26 7.2,0 14.26,-2.08 20.45,-5.76 l 9.14,9.36 C 243.54,163.26 212,158.29 194.87,135.83 l 10.51,-7.49 z"
         id="path1947"
         inkscape:connector-curvature="0" />
      <path
         d="m 339.37,142.67 12.75,-4.61 c -9.65,-14.69 -26.07,-23.69 -43.85,-23.69 -13.18,0 -25.78,4.97 -35.43,13.83 l 9.15,8.78 c 17.06,-15.05 43.56,-12.46 57.38,5.69 z"
         id="path1949"
         inkscape:connector-curvature="0" />
    </g>
    <g
       transform="matrix(0.55040297,0,0,0.55040297,292.06506,188.36897)"
       id="layer1-3"
       inkscape:label="Layer 1">
      <g
         transform="translate(-217.95205,-119.89227)"
         id="g2301">
        <path
           style="fill:#b8ebff;fill-opacity:1;fill-rule:evenodd;stroke:#000000;stroke-width:0;stroke-linecap:butt;stroke-linejoin:miter;stroke-miterlimit:4;stroke-dasharray:none;stroke-opacity:1"
           d="m 434.56295,374.10976 c 12.43651,-11.27475 49.51646,-12.33636 69.85055,-22.5034 15.05794,-5.00859 46.24797,-5.04076 69.13044,-5.04076 24.06438,0.18354 44.88447,-2.75402 62.83587,-1.88263 25.51141,1.23836 45.77979,5.27686 66.06359,16.64486 14.10369,7.30649 40.80675,15.63265 55.98846,23.22351 25.29636,8.23751 43.07145,23.08842 49.86753,42.12636 4.41333,14.49486 7.55275,30.04776 9.00136,47.88723 3.6079,22.15805 -5.12593,25.1537 -14.86646,30.85691 -12.99801,7.61051 -29.96031,9.19133 -4.39645,27.83195 3.06047,4.09959 6.69904,5.40082 10.44158,14.22215 0.44831,3.78057 -0.59841,7.63569 -4.50069,10.62161 -17.23745,13.18961 -23.72285,24.95805 -23.40353,29.88451 0.52161,8.04741 -0.54008,6.90998 -0.54008,24.48369 -107.41793,42.90141 -209.31698,31.78567 -307.03636,15.39233 -8.75419,-2.18855 -20.54677,-14.06579 -24.39368,-17.91271 -9.88133,-10.15136 -10.80164,-24.04467 -2.79043,-36.63552 7.38112,-10.56843 10.17154,-22.68237 -0.09,-33.93513 -7.2911,-7.24607 -12.23316,-19.01026 -15.12228,-30.60463 -2.29977,-5.75203 -4.93517,-16.2336 0,-23.40353 4.3381,-5.88578 10.53159,-35.88693 -5.76087,-62.28941 -11.57006,-15.58148 -9.34891,-36.44828 9.72146,-48.96739 z"
           id="path2239"
           sodipodi:nodetypes="cccsccccsccssccccccccc"
           inkscape:connector-curvature="0" />
        <path
           style="fill:#a0a086;fill-opacity:1;fill-rule:evenodd;stroke:#000000;stroke-width:0;stroke-linecap:butt;stroke-linejoin:miter;stroke-miterlimit:4;stroke-dasharray:none;stroke-opacity:1"
           d="m 705.32383,602.02417 -190.1087,12.96197 c -23.75521,1.10222 -55.85205,3.91165 -67.87025,12.06181 -19.48333,10.79011 -22.95346,16.28543 -4.32065,21.42324 9.00136,2.15557 11.70513,4.41234 19.80299,9.18138 4.01738,3.69645 3.25821,6.12092 22.5034,4.50068 15.03327,-2.20533 16.78039,-1.13778 12.24185,5.04076 -3.82558,5.14578 -1.26019,9.30141 19.08289,5.76088 8.4047,-1.15132 41.94276,-7.53805 50.76765,-10.08153 18.61454,-3.64169 35.2803,-7.57241 55.80843,-0.7201 10.80602,2.55304 55.8377,6.34202 88.75341,-0.54009 12.25369,-2.95176 16.25054,-10.36793 64.62975,-17.82269 33.51095,-7.22697 34.87484,-9.80877 24.12364,-16.74253 -4.22954,-2.45341 -7.51613,-4.95758 -9.18138,-10.6216 -1.12517,-8.46503 0.0346,-10.43816 -7.92119,-10.26154 -2.55445,0.16573 -2.67022,0.76704 -18.52119,0.30056 -7.38514,-0.21734 -8.40714,-1.24965 -9.92816,-3.12589 -1.73008,-2.41904 -5.40062,-3.32689 -10.43912,-2.68875 -14.0543,-0.23283 -38.42752,1.77178 -39.42337,1.37344 z"
           id="path2241"
           sodipodi:nodetypes="ccccccccccccccccccc"
           inkscape:connector-curvature="0" />
        <path
           style="fill:url(#linearGradient11125);fill-opacity:1;fill-rule:nonzero;stroke:#000000;stroke-width:0;stroke-linecap:butt;stroke-linejoin:miter;stroke-miterlimit:4;stroke-dasharray:none;stroke-opacity:1"
           d="m 564.58461,559.6574 -0.0637,67.02263 162.94201,0.1273 2.86421,-52.06507 -165.74257,-15.08486 z"
           id="path2243"
           sodipodi:nodetypes="ccccc"
           inkscape:connector-curvature="0" />
        <path
           sodipodi:nodetypes="ccccc"
           id="path2247"
           d="m 564.58461,559.6574 -0.0637,67.02263 -72.24186,0.95474 -4.83735,-60.97596 77.14286,-7.00141 z"
           style="fill:url(#linearGradient11117);fill-opacity:1;fill-rule:evenodd;stroke:#000000;stroke-width:0;stroke-linecap:butt;stroke-linejoin:miter;stroke-miterlimit:4;stroke-dasharray:none;stroke-opacity:1"
           inkscape:connector-curvature="0" />
        <path
           style="fill:url(#linearGradient11050);fill-opacity:1;fill-rule:evenodd;stroke:#000000;stroke-width:0;stroke-linecap:butt;stroke-linejoin:miter;stroke-miterlimit:4;stroke-dasharray:none;stroke-opacity:1"
           d="m 542.49832,454.31794 -3.30976,69.25035 18.07639,5.85573 -3.7553,-74.78783 -11.01133,-0.31825 z"
           id="path2256"
           sodipodi:nodetypes="ccccc"
           inkscape:connector-curvature="0" />
        <path
           style="opacity:1;fill:url(#linearGradient11066);fill-opacity:1;fill-rule:evenodd;stroke:none;stroke-width:1px;stroke-linecap:butt;stroke-linejoin:miter;stroke-opacity:1"
           d="m 669.54217,413.13689 c -0.44193,1.37216 0.0162,4.07355 -1.08203,4.64639 -0.79907,0.41682 -4.2079,-0.89111 -4.77369,-1.14568 -14.42978,-6.49263 -21.34987,6.56306 -22.27723,15.53041 -0.15715,1.53045 0.0821,2.66322 -0.89108,3.30976 -1.02632,0.68185 -2.77697,-1.84866 -3.11882,-2.41867 -3.81684,-6.36425 -11.29368,2.34183 -14.95757,8.78359 -0.62239,1.09428 -1.30624,2.99437 -2.29137,3.30976 -0.86718,0.27763 -2.43541,-1.25372 -2.80057,-1.52758 -0.65053,-0.4879 -3.27326,-0.37404 -4.32814,0 -2.8916,1.0253 -3.53902,2.79225 -4.83734,4.90099 -3.45089,5.60494 -2.02231,9.58291 1.27298,12.66619 1.00984,0.94486 5.09483,-4.83318 5.85573,-4.83734 1.11548,-0.007 1.41291,1.06317 2.29137,2.29137 2.11885,2.9624 12.74123,2.52465 16.6761,-1.52758 0.60363,-0.62164 1.81652,-3.34273 2.92786,-3.81895 0.90804,-0.3891 2.10374,0.78941 3.54119,1.80887 7.08639,5.02574 16.76439,5.3458 19.49983,-1.68157 0.51315,-1.31828 0.0653,-4.16878 0.89109,-4.6464 0.61063,-0.35318 2.13235,1.60693 5.21923,2.29137 6.1911,1.37274 22.65715,2.29094 23.42292,-7.12871 0.15117,-1.85947 -0.62454,-3.68529 -0.0637,-4.20085 0.48285,-0.44383 1.06474,-0.24727 2.48232,0.0636 5.85655,1.28453 22.54367,-1.00435 30.36068,-10.62942 1.19356,-1.46963 2.06252,-4.85532 2.10043,-6.55587 0.11473,-5.14737 -4.64539,-9.18361 -11.60208,-10.64398 -1.84636,-0.38759 -3.16297,-0.37012 -3.4828,-0.49463 -0.87794,-0.34179 -1.72083,-0.95817 -2.41867,-1.52758 -4.52256,-3.69025 -7.96584,-5.45234 -14.13012,-9.16549 -10.64876,-6.41445 -20.87411,4.23638 -23.48657,12.34795 z"
           id="path2168"
           sodipodi:nodetypes="csssssssssssssssssssssssssssss"
           inkscape:connector-curvature="0" />
        <path
           style="fill:url(#linearGradient11048);fill-opacity:1;fill-rule:evenodd;stroke:#000000;stroke-width:0;stroke-linecap:butt;stroke-linejoin:miter;stroke-miterlimit:4;stroke-dasharray:none;stroke-opacity:1"
           d="m 602.77414,459.91907 -2.48231,73.83309 15.785,2.29137 -3.69166,-76.18811 -9.61103,0.0636 z"
           id="path2258"
           sodipodi:nodetypes="ccccc"
           inkscape:connector-curvature="0" />
        <path
           style="fill:url(#linearGradient11109);fill-opacity:1;fill-rule:evenodd;stroke:#000000;stroke-width:0;stroke-linecap:butt;stroke-linejoin:miter;stroke-miterlimit:4;stroke-dasharray:none;stroke-opacity:1"
           d="m 555.73545,560.46376 -58.04957,5.26655 -5.65877,-38.28539 c 18.4822,-5.19227 36.9644,-7.58398 62.32071,-6.41133 l 1.38763,39.43017 z"
           id="path2249"
           sodipodi:nodetypes="ccccc"
           inkscape:connector-curvature="0" />
        <path
           style="fill:url(#linearGradient11046);fill-opacity:1;fill-rule:evenodd;stroke:#000000;stroke-width:0;stroke-linecap:butt;stroke-linejoin:miter;stroke-miterlimit:4;stroke-dasharray:none;stroke-opacity:1"
           d="m 654.58461,471.56688 -2.35503,70.07778 14.06649,2.29138 -3.05517,-72.43282 -8.65629,0.0637 z"
           id="path2260"
           sodipodi:nodetypes="ccccc"
           inkscape:connector-curvature="0" />
        <path
           sodipodi:nodetypes="cccccc"
           id="path2254"
           d="m 564.5942,559.66005 -8.85875,0.80371 -1.38763,-39.43017 149.18927,24.5663 -4.70544,26.28658 -134.23745,-12.22642 z"
           style="fill:url(#linearGradient11101);fill-opacity:1;fill-rule:evenodd;stroke:#000000;stroke-width:0;stroke-linecap:butt;stroke-linejoin:miter;stroke-miterlimit:4;stroke-dasharray:none;stroke-opacity:1"
           inkscape:connector-curvature="0" />
        <path
           style="fill:url(#linearGradient11058);fill-opacity:1;fill-rule:evenodd;stroke:none;stroke-width:1px;stroke-linecap:butt;stroke-linejoin:miter;stroke-opacity:1"
           d="m 551.85476,426.94877 c 1.23992,-0.3784 1.24862,-0.0259 1.55812,-0.5803 0.33357,-0.59747 -0.53718,-2.42758 -0.66712,-2.93357 -0.56382,-2.70673 -1.60998,-5.85238 -1.13806,-8.32833 0.50627,-2.65623 3.01462,-4.57236 4.67068,-5.12032 0.9236,-0.39576 4.84639,0.0866 5.52987,-0.66374 0.51968,-0.57049 -1.27829,-3.09754 -1.72822,-4.08956 -1.04879,-1.78914 -1.51717,-7.23962 0.82039,-10.82941 2.4782,-4.07815 7.5021,-6.15245 9.60356,-6.47174 0.72362,-0.10994 2.90419,-0.0596 3.35222,-1.01207 0.46034,-0.9786 -0.50894,-4.25065 -0.93355,-5.73475 -2.29137,-7.54367 4.95638,-12.66619 10.05658,-12.66619 19.49483,0.0636 20.28287,0.0265 24.50496,-4.07355 5.8194,-4.4532 9.09751,-5.90818 19.73126,-5.47384 7.11768,0.85162 13.24894,3.5534 13.87552,6.04668 0.94016,2.14087 4.79005,3.63232 9.03819,6.11032 7.16863,5.37647 3.80972,8.09269 0.63649,11.26592 -3.40418,3.40418 -11.81896,4.71004 -13.23904,4.71004 -0.98419,-0.11526 -3.83119,0.0236 -4.09329,0.3355 -0.29252,0.34811 -0.59466,1.38017 0.40164,2.21047 10.75243,8.56462 1.74243,16.91825 -14.00282,17.24894 -1.76574,-0.16324 -2.56907,-0.43286 -3.06325,0.26124 -0.64009,0.89904 0.83928,1.50806 1.66296,2.09378 5.98916,5.53171 -8.40211,14.04065 -15.56457,12.82587 -0.44475,-0.10718 -2.71799,-0.88915 -3.15557,-0.63097 -0.51862,0.306 -0.52618,0.73991 -0.50192,1.1237 0.0154,6.18635 -3.48527,9.0474 -10.94767,9.65877 -1.56295,-0.0807 -2.79352,-0.20347 -3.43714,0.34828 -0.73093,0.62661 0.60005,3.39595 0.70022,3.78892 1.51819,5.43864 -4.59515,6.69641 -8.97454,5.06011 -1.57852,-0.1634 -1.42209,-0.64061 -2.06589,-0.36457 -0.78022,0.33453 -0.53878,1.14442 -0.7665,1.5739 -1.67472,4.56143 -6.73517,3.52569 -9.79526,2.67473 -1.30512,-0.30436 -2.50523,-1.12962 -3.17947,-0.91056 -0.98748,0.32082 -1.20497,1.40619 -1.40999,2.7231 -0.0805,1.87765 -2.96075,3.05749 -6.45733,3.15399 -1.76429,0.21657 -5.32682,1.5157 -7.08427,2.40051 -0.8626,-2.15993 -3.86647,-6.95792 0.71628,-7.84587 1.46393,-0.83063 3.8817,-0.83256 4.36901,-1.50134 0.74667,-1.02475 -0.67909,-3.93077 -1.56844,-7.0913 -1.61015,-5.08721 -0.1743,-7.97817 2.54596,-9.29279 z"
           id="path2262"
           sodipodi:nodetypes="cscscscccsccccccccsccsccsccsccsccsccccscc"
           inkscape:connector-curvature="0" />
        <path
           style="opacity:1;fill:url(#linearGradient12102);fill-opacity:1;fill-rule:evenodd;stroke:none;stroke-width:1px;stroke-linecap:butt;stroke-linejoin:miter;stroke-opacity:1"
           d="m 747.41903,446.97721 c 1.76012,1.17999 4.9572,5.75279 5.36861,8.52198 0.16752,1.12755 0.15742,1.99458 0.38916,2.22382 0.38476,0.38061 6.01049,-1.83039 6.7791,-1.81385 24.9839,0.53778 17.67268,29.09365 -1.43211,25.72521 -1.41562,-0.24959 -2.65782,-1.69969 -3.37793,-1.2474 -1.07766,0.67686 -0.16337,2.81707 -0.69827,4.10444 -5.36774,12.91877 -35.42615,10.7488 -43.39442,0.82026 -1.09581,-1.36538 -1.61247,-2.67455 -2.73505,-3.02426 -1.40751,-0.43847 -1.76081,1.0028 -3.85249,2.58215 -10.36475,7.82607 -20.16106,9.97947 -30.80622,-3.97449 -0.66818,-0.87587 -0.44584,-2.0392 -1.4967,-2.31586 -0.74396,-0.19586 -1.06656,0.12941 -2.36933,0.73997 -5.05963,2.37128 -13.6831,-5.13328 -13.47745,-10.00187 0.0381,-0.90118 1.73019,-0.52939 1.76939,-1.25114 0.029,-0.53446 -0.98521,-0.7625 -1.27299,-1.27299 -3.9516,-7.00976 16.08924,-15.7551 19.73126,-11.20226 1.04736,1.3093 2.56501,3.36769 3.73159,3.36249 1.05816,-0.005 2.32825,-2.64369 3.01523,-3.33067 3.66542,-3.66543 12.1363,-8.88667 18.77652,-8.91089 5.89183,-0.0214 10.95823,3.62246 12.14023,4.54718 1.33785,1.04664 2.74311,2.83438 3.99259,2.76835 1.20091,-0.0635 2.21578,-3.05904 2.80321,-3.70071 8.84387,-9.66044 20.15243,-7.54861 26.41607,-3.34946 z"
           id="path3141"
           sodipodi:nodetypes="csssssssssssssssssssssss"
           inkscape:connector-curvature="0" />
        <path
           sodipodi:nodetypes="ccccc"
           id="path10024"
           d="m 627.08876,581.6261 -1.34303,31.16201 -13.33788,0.008 0.77789,-32.30894 13.90302,1.1392 z"
           style="opacity:1;fill:url(#linearGradient10026);fill-opacity:1;fill-rule:evenodd;stroke:url(#linearGradient10028);stroke-width:1.99999988;stroke-linecap:butt;stroke-linejoin:miter;stroke-miterlimit:4;stroke-dasharray:none;stroke-opacity:1"
           inkscape:connector-curvature="0" />
        <path
           style="opacity:1;fill:url(#linearGradient10032);fill-opacity:1;fill-rule:evenodd;stroke:url(#linearGradient10034);stroke-width:2;stroke-linecap:butt;stroke-linejoin:miter;stroke-miterlimit:4;stroke-dasharray:none;stroke-opacity:1"
           d="m 654.8855,584.26008 -0.4083,28.52803 -14.08384,-0.10297 0.765,-29.56026 13.72714,1.1352 z"
           id="path10030"
           sodipodi:nodetypes="ccccc"
           inkscape:connector-curvature="0" />
        <path
           sodipodi:nodetypes="ccccc"
           id="path10036"
           d="m 680.69181,586.71853 -0.62658,26.06956 -11.22758,0.129 0.41259,-27.44588 11.44157,1.24732 z"
           style="opacity:1;fill:url(#linearGradient10038);fill-opacity:1;fill-rule:evenodd;stroke:url(#linearGradient10040);stroke-width:2;stroke-linecap:butt;stroke-linejoin:miter;stroke-miterlimit:4;stroke-dasharray:none;stroke-opacity:1"
           inkscape:connector-curvature="0" />
        <path
           style="opacity:1;fill:url(#linearGradient10044);fill-opacity:1;fill-rule:evenodd;stroke:url(#linearGradient10046);stroke-width:2;stroke-linecap:butt;stroke-linejoin:miter;stroke-miterlimit:4;stroke-dasharray:none;stroke-opacity:1"
           d="m 706.61279,588.96424 0.0764,23.93857 -12.8481,0.0177 0.40149,-25.08549 12.37023,1.12918 z"
           id="path10042"
           sodipodi:nodetypes="ccccc"
           inkscape:connector-curvature="0" />
        <path
           style="opacity:1;fill:url(#linearGradient2244);fill-opacity:1;fill-rule:evenodd;stroke:url(#linearGradient2246);stroke-width:1.99999976;stroke-linecap:butt;stroke-linejoin:miter;stroke-miterlimit:4;stroke-dasharray:none;stroke-opacity:1"
           d="m 599.5143,579.11091 -1.34303,33.35224 -13.33788,0.008 0.77789,-34.57977 13.90302,1.21926 z"
           id="path2242"
           sodipodi:nodetypes="ccccc"
           inkscape:connector-curvature="0" />
        <path
           sodipodi:nodetypes="ccccc"
           id="path2248"
           d="m 544.44648,577.24558 0.6034,36.02858 -12.12136,-2.01926 0.29128,-34.41757 11.22668,0.40825 z"
           style="opacity:1;fill:url(#linearGradient2250);fill-opacity:1;fill-rule:evenodd;stroke:url(#linearGradient2252);stroke-width:1.99999976;stroke-linecap:butt;stroke-linejoin:miter;stroke-miterlimit:4;stroke-dasharray:none;stroke-opacity:1"
           inkscape:connector-curvature="0" />
        <path
           style="opacity:1;fill:url(#linearGradient2257);fill-opacity:1;fill-rule:evenodd;stroke:url(#linearGradient2259);stroke-width:1.99999976;stroke-linecap:butt;stroke-linejoin:miter;stroke-miterlimit:4;stroke-dasharray:none;stroke-opacity:1"
           d="m 519.06176,577.81329 1.81992,35.78527 -12.12136,-2.01926 -1.33075,-34.66087 11.63219,0.89486 z"
           id="path2255"
           sodipodi:nodetypes="ccccc"
           inkscape:connector-curvature="0" />
      </g>
    </g>
    <path
       style="fill:none;fill-rule:evenodd;stroke:#000000;stroke-width:4;stroke-linecap:butt;stroke-linejoin:miter;stroke-miterlimit:4;stroke-dasharray:none;stroke-opacity:1;marker-start:url(#EmptyTriangleInL)"
       d="m 290.60247,402.66452 118.67526,0.40726"
       id="path3713"
       inkscape:connector-curvature="0"
       sodipodi:nodetypes="cc" />
    <text
       xml:space="preserve"
       style="font-style:normal;font-variant:normal;font-weight:bold;font-stretch:normal;font-size:70px;line-height:125%;font-family:Sans;-inkscape-font-specification:'Sans Bold';letter-spacing:0px;word-spacing:0px;fill:#000000;fill-opacity:1;stroke:none;stroke-width:1px;stroke-linecap:butt;stroke-linejoin:miter;stroke-opacity:1"
       x="195.74532"
       y="257.53632"
       id="text5247"
       sodipodi:linespacing="125%"><tspan
         sodipodi:role="line"
         id="tspan5249"
         x="195.74532"
         y="257.53632">ELVONT</tspan></text>
    <text
       xml:space="preserve"
       style="font-style:normal;font-variant:normal;font-weight:bold;font-stretch:normal;font-size:70px;line-height:125%;font-family:Sans;-inkscape-font-specification:'Sans Bold';letter-spacing:0px;word-spacing:0px;fill:#000000;fill-opacity:1;stroke:none;stroke-width:1px;stroke-linecap:butt;stroke-linejoin:miter;stroke-opacity:1"
       x="244.55391"
       y="594.01617"
       id="text5251"
       sodipodi:linespacing="125%"><tspan
         sodipodi:role="line"
         id="tspan5253"
         x="244.55391"
         y="594.01617">GYAR</tspan></text>
    <path
       style="fill:url(#linearGradient5760);fill-opacity:1;fill-rule:evenodd;stroke:none;stroke-width:1px;stroke-linecap:butt;stroke-linejoin:miter;stroke-opacity:1"
       d="m 372.71151,525.82482 c 0.43574,-0.20494 0.45765,-0.0758 0.54199,-0.29606 0.0908,-0.23737 -0.32637,-0.86392 -0.40101,-1.04304 -0.35098,-0.96513 -0.90259,-2.066 -0.86057,-3.00127 0.0451,-1.00339 0.86548,-1.84099 1.44519,-2.13036 0.31853,-0.19454 1.78627,-0.22547 1.99769,-0.53763 0.16075,-0.23731 -0.6344,-1.07086 -0.85247,-1.41165 -0.48057,-0.60206 -0.94216,-2.58092 -0.2734,-4.02474 0.69451,-1.63082 2.4313,-2.66013 3.18689,-2.88908 0.26018,-0.0788 1.06449,-0.17611 1.17863,-0.55006 0.11723,-0.38421 -0.41279,-1.53562 -0.64769,-2.05867 -1.24289,-2.65158 1.14961,-4.91958 3.02455,-5.19038 7.17018,-1.0117 7.45791,-1.06718 8.79237,-2.79864 1.90291,-1.9461 3.03077,-2.65504 6.96308,-3.05997 2.66186,-0.0648 5.05932,0.60287 5.42204,1.48619 0.45931,0.73712 1.95381,1.081 3.64711,1.76642 2.92084,1.59591 1.83024,2.7728 0.83216,4.10786 -1.07072,1.43221 -4.09487,2.35906 -4.61693,2.43446 -0.36792,0.01 -1.4072,0.2121 -1.48699,0.34067 -0.089,0.14352 -0.14528,0.53898 0.26502,0.79131 4.40761,2.57766 1.53885,6.12707 -4.23195,7.08464 -0.6578,0.0338 -0.96744,-0.0227 -1.11226,0.25868 -0.18757,0.3645 0.38861,0.50984 0.72251,0.68144 2.49548,1.7156 -2.34333,5.60782 -5.04094,5.54152 -0.1692,-0.0158 -1.04642,-0.18253 -1.19357,-0.0644 -0.17441,0.14003 -0.15414,0.29994 -0.12488,0.43974 0.33448,2.2734 -0.80095,3.5111 -3.51181,4.13209 -0.57886,0.0533 -1.03777,0.0735 -1.24509,0.31053 -0.23543,0.26916 0.40091,1.21658 0.4586,1.35573 0.84689,1.91877 -1.33375,2.70575 -3.03061,2.33673 -0.58897,0.0238 -0.55681,-0.16 -0.77883,-0.0243 -0.26906,0.1644 -0.13732,0.44932 -0.19818,0.6193 -0.37347,1.76583 -2.28883,1.65374 -3.45897,1.50339 -0.49595,-0.0426 -0.98096,-0.2823 -1.2172,-0.16592 -0.346,0.17036 -0.36832,0.58092 -0.37377,1.07594 0.0701,0.69454 -0.92611,1.2812 -2.20642,1.50235 -0.6371,0.17329 -1.8778,0.84003 -2.4769,1.25862 -0.4318,-0.74824 -1.79085,-2.35262 -0.15326,-2.92237 0.49408,-0.38309 1.38281,-0.51217 1.52645,-0.78391 0.22009,-0.41636 -0.45837,-1.409 -0.95312,-2.52366 -0.86204,-1.7847 -0.48766,-2.92373 0.44256,-3.55145 z"
       id="path2262-5"
       sodipodi:nodetypes="cscscscccsccccccccsccsccsccsccsccsccccscc"
       inkscape:connector-curvature="0" />
  </g>
</svg>
